<?xml version="1.0" encoding="utf-8"?>
<!-- Generator: Adobe Illustrator 26.5.0, SVG Export Plug-In . SVG Version: 6.00 Build 0)  -->
<svg version="1.1" id="Layer_2_00000042011027716218951250000015242388384582858886_"
	 xmlns="http://www.w3.org/2000/svg" xmlns:xlink="http://www.w3.org/1999/xlink" x="0px" y="0px" viewBox="0 0 79.5 84.4"
	 style="enable-background:new 0 0 79.5 84.4;" xml:space="preserve">
<style type="text/css">
	.st0{fill:#FFFFFF;}
</style>
<g>
	<path class="st0" d="M62.5,14.6c-0.4-6-1.5-9.8-1.6-10c-0.3-1-1.2-1.7-2.3-1.7c-0.1,0-0.1,0-0.2,0c-0.7,0-1.3,0.3-1.7,0.8
		c-0.1,0-0.2,0-0.3,0s-0.1,0-0.2,0c-0.2,0-0.3,0-0.5,0c-0.4,0-0.7,0.2-1,0.4c-0.3,0.2-0.5,0.5-0.7,0.8c-0.1,0.2-0.2,0.3-0.2,0.5
		c-0.3,1.2-0.7,2.4-1.2,3.6c-4-1.5-8.4-2.3-12.9-2.3c-20.4,0-37,16.5-37,37c0,9.5,3.7,18.2,9.6,24.8c-4.6,4.8-8.3,8.7-8.6,9.1
		c-0.9,0.9-0.9,2.2-0.1,3.2c0.5,0.6,1.2,0.9,1.9,0.9c0.4,0,0.9-0.1,1.3-0.4c2.6-1.7,4.3-2,4.3-2c0.7-0.2,1.2-0.5,1.6-1
		c1.5-2,3-3.8,4.3-5.4c6.3,4.9,14.2,7.8,22.7,7.8c20.5,0,37.1-16.6,37.1-36.9C76.8,31.9,71.2,21.4,62.5,14.6z M33.9,42.6
		c8.1-8.5,18.6-24,22.4-36.7c-1.7,5.7-5.6,17.9-10.9,26.7c-9.8,16.3-22.2,26.7-22.2,26.7S24.9,52,33.9,42.6z M59.9,23.5l-7.8,7
		l7.6-5c-0.4,3.2-1.2,6.8-2.4,10.4c-1.8,5.1-3.9,9.4-6.3,12.8l-10.8,6.2l8-2.7c-4.7,5.4-9.8,7.9-13.3,7.8c-6.1,0-12.5,1.3-24.1,16.8
		c0,0-2.1,0.3-5.3,2.4c0,0,19-20.5,24.8-25c5.8-4.6,24.3-25,28.3-49.1C58.6,5.1,60.9,12.7,59.9,23.5z"/>
</g>
</svg>
