<?xml version="1.0" encoding="utf-8"?>
<!-- Generator: Adobe Illustrator 26.5.0, SVG Export Plug-In . SVG Version: 6.00 Build 0)  -->
<svg version="1.1" id="Layer_2_00000042011027716218951250000015242388384582858886_"
	 xmlns="http://www.w3.org/2000/svg" xmlns:xlink="http://www.w3.org/1999/xlink" x="0px" y="0px" viewBox="0 0 79.5 84.4"
	 style="enable-background:new 0 0 79.5 84.4;" xml:space="preserve">
<style type="text/css">
	.st0{fill:#FFFFFF;}
</style>
<g>
	<path class="st0" d="M30.3,54.2C24.5,58.7,5.5,79.2,5.5,79.2c3.2-2.1,5.3-2.4,5.3-2.4C22.4,61.3,28.8,60,34.9,60
		c3.5,0.1,8.6-2.4,13.3-7.8l-8,2.7L51,48.7c2.4-3.4,4.5-7.7,6.3-12.8c1.2-3.6,2-7.2,2.4-10.4l-7.6,5l7.8-7c1-10.8-1.3-18.4-1.3-18.4
		C54.6,29.2,36.1,49.6,30.3,54.2z"/>
	<path class="st0" d="M45.4,32.6c5.3-8.8,9.2-21,10.9-26.7C52.5,18.6,42,34.1,33.9,42.6v0c-9,9.4-10.7,16.7-10.7,16.7
		S35.6,48.9,45.4,32.6z"/>
	<path class="st0" d="M65.1,13c-0.4-5.5-1.5-9-1.6-9.4C62.8,1.5,60.8,0,58.6,0c-0.1,0-0.2,0-0.3,0c-0.9,0.1-1.7,0.3-2.4,0.8
		c-0.2,0-0.5,0-0.7,0.1c-0.7,0.2-1.4,0.5-2,0.9c-0.6,0.5-1.1,1.1-1.5,1.7c-0.2,0.3-0.3,0.7-0.4,1c-0.1,0.3-0.2,0.6-0.3,1
		c-3.6-1.1-7.4-1.6-11.2-1.6C17.8,3.9,0,21.7,0,43.6c0,9,3,17.7,8.6,24.7c-3.8,3.9-6.6,7-6.9,7.4c-1.8,1.9-1.8,4.8-0.2,6.8
		c1,1.2,2.4,1.8,3.9,1.8c1,0,1.9-0.3,2.8-0.8c1.9-1.2,3.2-1.6,3.4-1.6c1.3-0.2,2.4-0.9,3.2-2c0.9-1.2,1.8-2.3,2.7-3.4
		c6.6,4.5,14.2,6.8,22.2,6.8c21.9,0,39.7-17.8,39.7-39.7C79.5,31.7,74.2,20.6,65.1,13z M39.7,80.7c-8.5,0-16.4-2.9-22.7-7.8
		c-1.3,1.6-2.8,3.4-4.3,5.4c-0.4,0.5-0.9,0.8-1.6,1c0,0-1.7,0.3-4.3,2c-0.4,0.3-0.9,0.4-1.3,0.4c-0.7,0-1.4-0.3-1.9-0.9
		c-0.8-1-0.8-2.3,0.1-3.2c0.3-0.4,4-4.3,8.6-9.1c-5.9-6.6-9.6-15.3-9.6-24.8c0-20.5,16.6-37,37-37c4.5,0,8.9,0.8,12.9,2.3
		c0.5-1.2,0.9-2.4,1.2-3.6c0-0.2,0.1-0.3,0.2-0.5c0.2-0.3,0.4-0.6,0.7-0.8c0.3-0.2,0.6-0.4,1-0.4c0.2,0,0.3,0,0.5,0
		c0.1,0,0.1,0,0.2,0c0.1,0,0.2,0,0.3,0c0.4-0.5,1-0.8,1.7-0.8c0.1,0,0.1,0,0.2,0c1.1,0,2,0.7,2.3,1.7c0.1,0.2,1.2,4,1.6,10v0
		c8.7,6.8,14.3,17.3,14.3,29.2C76.8,64.1,60.2,80.7,39.7,80.7z"/>
</g>
</svg>
