<?xml version="1.0" encoding="UTF-8"?>
<svg id="Layer_2" data-name="Layer 2" xmlns="http://www.w3.org/2000/svg" viewBox="0 0 189.83 164.49">
  <defs>
    <style>
      .cls-1 {
        fill: #fff;
      }
    </style>
  </defs>
  <g id="Layer_1-2" data-name="Layer 1">
    <path class="cls-1" d="M186.17,50.4c.34-2.5,2.66-3.49,3.66-5.49-.66-.5-.99-.75-.88-1.59-.88,1.17-1.88,3.16-3.1,4.07l-.99-.75c.55-1.41,2.54-2.65,3.09-4.07-.33-.25-.99-.75-1.32-1-.33-.25,.11-.83,.55-1.41-.44,.58-1.32,1.74-1.76,2.33-.33-.25-.99-.75-1.32-1-.33-.25,.11-.83,.55-1.41-.66-.5-.88-1.58-1.65-1.25l-1.32,1.74c1.43-2.57,.66-4.98-.33-5.73-.11,.83-1.1,.08-1.21,.91,.33-2.49,.32-5.22-1.76-3.16-3.1,3.71-6.14,7.51-9.15,11.34-.29-.3-.85-.9-1.13-1.19-.29-.3,.04-.61,.37-.92-.33,.31-.99,.93-1.32,1.24-.29-.3-.86-.9-1.14-1.2-.29-.3,.04-.61,.38-.93-.57-.6-.81-1.52-1.43-1.5l-1,.95c1.04-1.57,.3-3.7-.56-4.61-.05,.62-.91-.28-.96,.34,.1-1.14,.09-2.4-.3-2.97,2.74-2.7,5.44-5.48,5.9-7.89l-3.41,3.77c2.47-4.55,6.85-7.56,9.8-11.99-.66-.51-.97-.76-.24-2.4-2.09,2.79-5.12,7-7.7,9.24l-.93-.83c1.94-2.77,5.89-6.14,7.64-9.17-.33-.25-.99-.75-1.32-1-.28-.21,.42-1.22,1.24-2.36-1.05,1.47-2.72,3.64-3.65,4.77-.32-.26-.97-.78-1.29-1.04-.32-.26,.72-1.55,1.72-2.87-.65-.51-.34-2.3-1.65-1.25-.99,1.29-2,2.57-3.04,3.82,1.93-2.65,2.89-4.97,3.23-6.68,.34-1.72,.08-2.82-.44-3.17-.54,1.51-1.55,.79-2.12,2.28,.88-2.24,1.5-4.52,1.46-5.63-.02-.55-.16-.87-.57-.65-.39,.16-.95,.76-1.86,1.91-3.7,5.21-8.32,10.25-13.26,15.53-1.96,2.1-3.93,4.22-5.9,6.34,.18-.47,.24-.95,.11-1.46l-1.47,1.77c.53-2.54,2.92-3.54,4.01-5.61-.65-.51-.98-.77-.84-1.62-.92,1.2-2.02,3.24-3.3,4.15l-.96-.79c.63-1.42,2.69-2.67,3.28-4.12-.33-.25-.98-.76-1.31-1.01-.33-.25,.13-.84,.58-1.43-.45,.59-1.36,1.76-1.82,2.35-.33-.26-.98-.77-1.3-1.02-.32-.26,.13-.83,.58-1.42-.65-.51-.87-1.59-1.64-1.27l-1.34,1.72c1.48-2.54,.68-4.95-.31-5.69-.1,.82-1.08,.07-1.19,.88,.3-2.46,.21-5.1-1.79-3.12-.23,.27-.46,.54-.69,.81-.05,0-.1,0-.16,.02-.4,.12-1.05,.63-2.03,1.67-1.52,1.74-3.13,3.43-4.83,5.08,1.07-3.12,1.6-5.81-1.46-2.72-3.59,4.07-6.92,8.31-10.05,12.64-4.02,3.15-8.25,6.24-12.59,9.4,.27-.39,.48-.8,.57-1.23l-2.79,2.02c2.05-3.04,5.58-4.04,8.15-6.37-.48-.68-.72-1.01-.02-2.02-1.89,1.31-4.44,3.68-6.56,4.69l-.73-1.01c1.64-1.68,4.92-3.04,6.57-4.7-.24-.34-.72-1.02-.96-1.35-.24-.34,.71-1,1.65-1.67-.95,.67-2.84,2-3.78,2.66-.24-.34-.72-1.01-.96-1.35-.24-.34,.71-1.01,1.66-1.67-.48-.68,0-2.02-1.2-1.69l-2.85,2.02c3.55-3.03,4.28-6.06,3.56-7.08-.72,1.01-1.43,0-2.15,1.01,2.15-3.03,4.09-6.42,.01-4.06-5.61,3.68-11.15,7.53-16.62,11.49,.19-.76,.19-1.32-.11-1.46,.02-.04,.05-.07,.07-.11,.75-1.28,3.63-1.73,2.88-3.89l-1.03,.99c.17-1.88,2.06-1.98,2.79-3.27-.58-.59-.87-.89-.82-1.52-.68,.66-1.42,1.95-2.39,2.31l-.86-.9c.39-.96,1.99-1.34,2.38-2.3-.29-.3-.87-.89-1.16-1.19-.29-.3,.05-.63,.39-.95-.34,.33-1.01,.99-1.35,1.32-.29-.3-.87-.89-1.15-1.19-.29-.3,.05-.63,.38-.95-.58-.59-.82-1.51-1.44-1.48l-1.01,.98c1.06-1.6,.27-3.74-.6-4.62-.04,.62-.91-.27-.95,.35,.13-1.86-.04-4.01-1.65-3.02-5.22,4.38-10.24,9.1-15.19,13.9-.12-.21-.29-.34-.6-.31-.62,.42-1.23,.83-1.85,1.25,2.23-2.01,2.31-4.56,1.62-5.59-.39,.76-1.08-.27-1.46,.49,1.15-2.28,2.08-4.9-.62-3.58C42.79,21.48,21.53,37.82,.41,53.05c-1,1.18,.08,1.45,.54,2.13,2.46-1.66,4.7-3.67,7.01-4.23,.62-.42,.31,1.79,1.39,2.06,.62-.42,1.85-1.25,2.47-1.66,1.31,.61,.77,2.48,2.08,3.09,1.31,.62,3.31-1.73,4.39-1.46,2.31-.56-.54,1.86-2.39,3.11,1.08,.27-1.23,.83-.77,1.52,.93,1.37,1.85,2.75,5.01,2.12,.85-.07,.93,1.37,1.39,2.06,7.4-4.99,15.41-10.39,21.88-16.75,3.64-3.45,8.59-6.18,13.08-9.16,.48,.72,.77,1.59,1.57,2.04,1.16,.65,2.07-1.19,2.96-.86,1.62-.28,.08,1.56-1.01,2.47,.89,.33-.72,.61-.19,1.24,.8,.96,1.6,1.91,2.9,2.21-2.32,1.92-4.63,3.86-6.92,5.82-15.84,13.56-30.94,27.95-45.37,42.54-1.4,1.92,.03,1.7,.6,2.3,3.36-3.25,6.45-6.79,9.58-8.59,.85-.8,.29,2.01,1.71,1.81,.85-.8,2.55-2.39,3.4-3.19,1.7,.12,.84,2.61,2.54,2.73,1.7,.13,4.53-3.64,5.95-3.8,3.13-1.73-.88,2.47-3.41,4.84,1.41-.18-1.7,1.57-1.13,2.18,.13,.14,.26,.27,.39,.41-4.58,5.21-9.33,10.13-14.39,14.61-.59,.8-.6,1.2-.37,1.48,.23,.28,.7,.43,.96,.75,1.49-1.3,2.91-2.68,4.3-3.9,1.39-1.22,2.69-2.39,4.07-3.1,.73-.69,.42,1.89,1.72,1.8,.73-.69,2.2-2.08,2.9-2.83,1.59,.15,1.04,2.49,2.64,2.63,1.6,.13,3.92-3.39,5.22-3.59,1.36-.87,1.23-.27,.5,.83-.74,1.09-2.14,2.65-3.23,3.77,1.32-.16-1.46,1.5-.88,2.08,.35,.35,.71,.71,1.13,.97-2.25,2.58-4.53,5.11-6.86,7.55-4.72,4.93-9.55,9.64-14.74,13.74-.53,.56-.82,.96-.95,1.25-.15,.3-.13,.5-.02,.64,.22,.29,.79,.37,1.04,.7,2.39-1.95,4.79-3.86,6.93-5.84,1.09-.97,2.17-1.85,3.2-2.7,1.02-.87,2.03-1.65,3.02-2.31,1.14-1.08,.01,2.28,1.73,1.79,1.17-1.06,3.39-3.35,4.51-4.49,2.01-.28,.65,2.88,2.67,2.6,2.07-.26,5.86-5.62,7.57-6.26,1.93-1.55,1.62-.74,.42,.93-1.24,1.64-3.36,4.13-5.06,5.9,1.75-.6-2.29,2.34-1.7,2.92,.59,.58,1.18,1.17,2.31,1.12,1.12-.06,2.87-.71,5.57-2.75,1.44-.94,1.21,1.13,1.82,1.7,6.66-7.14,13.05-14.78,19.17-22.41,.49,0,.05,2.09,1.25,2.09,.88-.67,2.64-2,3.47-2.73,1.66,.24,.71,2.64,2.37,2.88,1.71,.25,4.64-3.44,6.02-3.65,.29-.17,.5-.27,.68-.34-10.3,11.58-20.56,23.11-30.74,34.56-1.95,2.73-.21,2.06,.4,2.63,4.5-4.9,8.7-10.09,12.69-13.21,1.13-1.23,.1,2.34,1.83,1.68,1.13-1.23,3.38-3.68,4.51-4.91,2.04-.39,.7,2.91,2.75,2.52,.65-.12,1.5-.77,2.4-1.61-1.4,1.65-2.82,3.3-4.25,4.91-.79,1.46,.35,1.44,.96,2.01,1.39-1.49,2.66-3.09,3.96-4.39-.67,.79-2.15,2.19-1.76,2.55,1.22,1.12,2.44,2.24,7.86-1.82,1.43-.95,1.22,1.12,1.83,1.68,1.55-1.69,3.12-3.4,4.7-5.13,.24-.18,.47-.3,.69-.31,2.24-1.34-.12,2.07-1.77,3.92,1.17-.07-1.09,1.24-.47,1.79,1.11,.98,2.21,1.96,4.65,.96-5.7,7.89-11.4,15.76-17.09,23.58-1.27,2.36,.19,1.8,.85,2.3,3.2-4.22,6.06-8.7,9.12-11.37,.8-1.06,.52,2.05,1.98,1.5,.8-1.06,2.4-3.17,3.2-4.23,1.79-.31,1.18,2.56,2.97,2.25,1.79-.31,4.33-5.03,5.79-5.59,3.06-2.68-.61,2.86-3.01,6.03,1.46-.56-1.6,2.11-.94,2.61,1.32,1,2.64,2,6.83-1.48,1.13-.81,1.32,1,1.98,1.5,2.52-3.33,5.1-6.74,7.67-10.2,.35,.25,.96,.7,1.27,.93,.34,.25-.01,.73-.37,1.21,.3,.22,.52,.52,.74,.78-5.88,7.38-11.68,15.13-16.67,23.64-.37,.98-.23,1.34,.09,1.53,.31,.19,.79,.2,1.14,.41,2.09-3.44,4.03-6.98,6.44-8.92,.58-.8,.77,1.76,2.02,1.45,.57-.79,1.72-2.37,2.32-3.13,1.57-.02,1.4,2.27,2.97,2.25,1.55-.02,3.23-3.51,4.48-3.73,.22-.15,.39-.25,.53-.31-3.7,4.64-7.4,9.25-11.12,13.8-.8,1.55,.38,1.45,1.01,2,2.22-2.56,4.12-5.4,6.41-6.79,.55-.64,.7,1.72,1.88,1.62,.55-.64,1.66-1.93,2.21-2.58,1.49,.16,1.33,2.26,2.83,2.43,1.5,.16,3.08-2.96,4.26-3.06,2.29-1.4-.16,2.1-1.82,4.04,1.18-.11-1.11,1.29-.48,1.83,1.26,1.08,2.51,2.16,5.68,.38,.87-.38,1.26,1.08,1.89,1.62,6.67-7.78,13.83-16.26,19.12-25.18,4.51-7.34,12.45-14.16,16.73-21.58,1.3-2.24,5.27-4.51,4.74-7.14l-1.61,1.99c.65-2.77,3.22-3.97,4.5-6.22-.65-.52-.97-.78-.76-1.71-1.07,1.33-2.35,3.57-3.75,4.64l-.96-.78c.75-1.59,3-3.05,3.75-4.64-.32-.26-.97-.78-1.29-1.04-.32-.26,.21-.92,.74-1.58-.53,.66-1.6,1.99-2.13,2.65-.32-.26-.97-.78-1.29-1.04-.32-.26,.21-.92,.74-1.58-.64-.52-.76-1.7-1.61-1.3l-1.6,1.98c1.52-2.44,1.38-4.67,.72-5.79,.01-.28,0-.55-.07-.82l-.25,.4s-.07-.07-.1-.1c-.11,.46-.4,.5-.7,.53,.96-2.19,2.82-3.81,3.76-6.02-.71-.43-1.06-.64-.92-1.69-.88,1.47-1.9,3.76-3.09,5.25,0-.96-.25-1.52-1-1.14,.93-1.56,2.5-3.21,3.02-4.74-.29-.17-.8-.48-1.18-.71,3-4.06,5.83-8.28,8.1-12.65,3.54-6.52,10.38-12.42,13.71-19.01,1.01-1.99,4.55-3.89,3.79-6.31l-1.33,1.74Z"/>
  </g>
</svg>