<?xml version="1.0" encoding="UTF-8"?>
<svg id="Layer_2" data-name="Layer 2" xmlns="http://www.w3.org/2000/svg" viewBox="0 0 240.54 42.57">
  <defs>
    <style>
      .cls-1 {
        fill: #018aaa;
        stroke-width: 0px;
      }
    </style>
  </defs>
  <g id="Layer_1-2" data-name="Layer 1">
    <g>
      <path class="cls-1" d="m4.87,38.57h3.32c0,.72-.15,1.77-.81,2.6-.7.89-1.77,1.33-2.98,1.33-2.33,0-4.09-1.71-4.09-4.07s1.83-4.08,4.13-4.08c1.11,0,1.86.38,2.48.85.33.26.63.55.95,1l-.42.33c-.23-.38-.55-.7-.76-.88-.5-.42-1.28-.83-2.27-.83-2.03,0-3.57,1.61-3.57,3.63s1.5,3.57,3.54,3.57c1.35,0,2.33-.69,2.75-1.34.31-.47.5-1.13.52-1.64h-2.8v-.47Z"/>
      <path class="cls-1" d="m22.71,42.37l-2.56-3.74h-.24v3.74h-.52v-7.91h1.14c.61,0,1.15.05,1.67.4.62.43.82,1.08.82,1.7,0,.78-.34,1.59-1.33,1.92-.42.14-.79.15-.97.15l2.59,3.74h-.59Zm-2.8-4.21h.76c1.13,0,1.8-.59,1.8-1.61,0-.8-.39-1.21-.7-1.38-.33-.19-.9-.24-1.21-.24h-.65v3.23Z"/>
      <path class="cls-1" d="m38.15,39.77h-3.37l-1.06,2.6h-.57l3.33-8.15,3.29,8.15h-.57l-1.06-2.6Zm-.19-.47l-1.48-3.75-1.51,3.75h2.99Z"/>
      <path class="cls-1" d="m51.02,38.61v3.76h-.52v-7.91h1.53c1.29,0,2.31.71,2.31,2.06s-.94,2.09-2.3,2.09h-1.02Zm0-.47h1.04c1.03,0,1.73-.6,1.73-1.6s-.66-1.6-1.82-1.6h-.96v3.2Z"/>
      <path class="cls-1" d="m65.8,37.81h4.79v-3.36h.52v7.91h-.52v-4.08h-4.79v4.08h-.52v-7.91h.52v3.36Z"/>
      <path class="cls-1" d="m83.26,34.45v7.91h-.52v-7.91h.52Z"/>
      <path class="cls-1" d="m101.22,36.07c-.68-.8-1.65-1.25-2.67-1.25-2.03,0-3.55,1.63-3.55,3.63,0,2.35,1.96,3.57,3.56,3.57.8,0,1.85-.32,2.66-1.2v.69c-.81.71-1.78.98-2.63.98-2.37,0-4.13-1.86-4.13-4.07s1.83-4.08,4.1-4.08c1.51,0,2.42.81,2.66,1.03v.69Z"/>
      <path class="cls-1" d="m124.66,42.37v-7.91h1.57c.7,0,1.92.11,2.92,1.1.84.84,1.14,1.99,1.14,2.86s-.3,2.01-1.14,2.85c-1,1-2.22,1.1-2.92,1.1h-1.57Zm.52-.47h1.03c2.09,0,3.52-1.42,3.52-3.48s-1.45-3.49-3.52-3.49h-1.03v6.96Z"/>
      <path class="cls-1" d="m145.28,34.93h-3.27v2.87h3.2v.47h-3.2v3.62h3.27v.47h-3.8v-7.91h3.8v.47Z"/>
      <path class="cls-1" d="m160.08,35.8c-.49-.95-1.34-.97-1.55-.97-.94,0-1.47.68-1.47,1.47,0,.85.59,1.14,1.39,1.53.78.38,1.17.55,1.58.83.34.24.84.65.84,1.53,0,1.33-1.12,2.31-2.47,2.31-1.02,0-1.54-.49-1.84-.83-.31-.36-.44-.66-.51-.87l.45-.21c.11.31.31.62.43.76.36.45.94.68,1.48.68,1.07,0,1.91-.78,1.91-1.83,0-.43-.17-.88-.77-1.25-.23-.13-.69-.37-1.34-.69-.78-.38-1.17-.59-1.45-1.04-.18-.3-.25-.59-.25-.9,0-.91.62-1.97,2.03-1.97.8,0,1.52.38,1.92,1.13l-.38.32Z"/>
      <path class="cls-1" d="m172.58,34.45v7.91h-.52v-7.91h.52Z"/>
      <path class="cls-1" d="m188.33,38.57h3.32c0,.72-.15,1.77-.81,2.6-.7.89-1.77,1.33-2.98,1.33-2.32,0-4.09-1.71-4.09-4.07s1.83-4.08,4.13-4.08c1.12,0,1.86.38,2.48.85.33.26.63.55.95,1l-.42.33c-.23-.38-.55-.7-.76-.88-.5-.42-1.28-.83-2.27-.83-2.03,0-3.57,1.61-3.57,3.63s1.49,3.57,3.53,3.57c1.35,0,2.33-.69,2.75-1.34.31-.47.5-1.13.52-1.64h-2.8v-.47Z"/>
      <path class="cls-1" d="m202.84,42.37v-8l6.64,6.95v-6.87h.52v8.11l-6.64-6.95v6.75h-.52Z"/>
      <path class="cls-1" d="m225.43,34.93h-3.27v2.87h3.2v.47h-3.2v3.62h3.27v.47h-3.8v-7.91h3.8v.47Z"/>
      <path class="cls-1" d="m239.94,42.37l-2.56-3.74h-.24v3.74h-.52v-7.91h1.14c.6,0,1.15.05,1.67.4.62.43.82,1.08.82,1.7,0,.78-.34,1.59-1.33,1.92-.42.14-.8.15-.97.15l2.59,3.74h-.59Zm-2.8-4.21h.76c1.13,0,1.8-.59,1.8-1.61,0-.8-.39-1.21-.7-1.38-.33-.19-.9-.24-1.21-.24h-.65v3.23Z"/>
    </g>
    <g>
      <path class="cls-1" d="m119.46,7.51c.01-2.86.26-5.36.74-7.51h-9.38c.3,1.37.45,3.95.47,7.73v22.76h12.17l1.5-6.95-5.5.31V7.51Z"/>
      <path class="cls-1" d="m151.87.16c-.67.07-1.3.3-1.9.67-.85.55-1.44,1.53-1.76,2.95-.12.52-.23,1.41-.34,2.68s-.16,2.38-.16,3.33v9.72c-.03,3.68.17,6.31.6,7.91.36,1.43,1.17,2.35,2.43,2.75.6.19,2.28.31,5.05.34h7.66v-6.63h-7.57v-5.29h7.57v-6.63h-7.57v-5.29h7.57V0h-7.66c-1.89.03-3.2.08-3.93.16Z"/>
      <polygon class="cls-1" points="186.92 30.49 195.1 30.49 195.1 18.56 200.26 18.56 200.26 11.93 195.1 11.93 195.1 6.63 200.26 6.63 200.26 0 186.92 0 186.92 30.49"/>
      <path class="cls-1" d="m206.37.16c-.67.07-1.3.3-1.9.67-.85.55-1.44,1.53-1.76,2.95-.12.52-.23,1.41-.34,2.68s-.16,2.38-.16,3.33v9.72c-.03,3.68.17,6.31.6,7.91.36,1.43,1.17,2.35,2.43,2.75.6.19,2.28.31,5.05.34h7.66v-6.63h-7.57v-5.29h7.57v-6.63h-7.57v-5.29h7.57V0h-7.66c-1.89.03-3.2.08-3.93.16Z"/>
      <path class="cls-1" d="m.98,21.9c-.48-.27-.8-.77-.98-1.46v4.87h6.94v-3.02h-3.55c-1.09,0-1.89-.13-2.41-.4Z"/>
      <path class="cls-1" d="m108.64,11.24c.12-.49.18-1.42.18-2.79v-3.6c.01-1.55.05-2.52.11-2.93.06-.51.24-1.15.54-1.92h-8.13c-.46,1.09-.69,2.42-.69,4v3.48c0,1.01-.02,1.68-.07,2.01-.09.98-.33,1.66-.71,2.03-.28.25-.77.39-1.47.4h-1.21V0H7.62C3.41,0,0,3.41,0,7.62v2.08c.25-.86.72-1.48,1.4-1.86.58-.3,1.67-.45,3.26-.45h8.98v5.52h-6.61v2.77h2.57c2.13-.03,3.54.44,4.24,1.41.34.57.54,1.53.58,2.9.01.36.02,1.07.02,2.14v3.26c0,.33-.03.8-.1,1.41-.07.61-.13,1.06-.19,1.36-.18.85-.69,1.54-1.54,2.08-.15.09-.35.17-.56.24h7.42s-.01,0-.02,0c-.66-.23-1.17-.6-1.54-1.11-.64-.91-.94-2.26-.89-4.04v-11.53h-1.97v-5.52h1.97V2.75h7.3v5.54h3.46v5.52h-3.46v9.87c0,.51.07.87.22,1.09.22.34.66.52,1.32.54h1.92v5.18h3.74c-.56-.16-1-.38-1.32-.66-.55-.55-.86-1.56-.94-3.04-.01-.39-.02-1.14-.02-2.26v-12.4c.01-1.76.38-2.99,1.09-3.69.51-.49,1.37-.8,2.59-.94.63-.07,1.39-.11,2.3-.11h5.76c2.52.03,4.18.39,4.98,1.07.64.52,1,1.29,1.07,2.3.01.27.02.82.02,1.65v9.63h-10.54v1.23c0,.86.19,1.42.56,1.68.34.24,1.02.36,2.03.36h7.95v5.18h6.65c-1.53-1.81-2.85-4.18-3.96-7.12-.71-1.82-1.09-4.3-1.14-7.46V7.4h7.28v8.47c0,1.98.1,3.66.31,5.03s.66,2.67,1.34,3.89c.67-1.24,1.11-2.53,1.32-3.89.21-1.37.31-3.05.31-5.03V7.4h7.28v8.51c-.06,3.43-.55,6.21-1.47,8.35-1.09,2.56-2.3,4.63-3.64,6.23h9.01c-.56-.16-1-.38-1.32-.66-.55-.55-.86-1.56-.94-3.04-.01-.39-.02-1.14-.02-2.26v-12.4c.01-1.76.38-2.99,1.09-3.69.51-.49,1.37-.8,2.59-.94.63-.07,1.39-.11,2.3-.11h5.76c2.52.03,4.18.39,4.98,1.07.64.52,1,1.29,1.07,2.3.01.27.02.82.02,1.65v9.63h-10.54v1.23c0,.86.19,1.42.56,1.68.34.24,1.02.36,2.03.36h7.95v5.18h11.24v-11.93h1.07c1.19.01,1.94.63,2.26,1.83.09.31.13.97.13,1.97v2.79c0,1.28.06,2.32.18,3.13.12.71.39,1.45.8,2.21h7.84c-.25-.82-.42-1.56-.51-2.23-.09-.73-.13-1.82-.13-3.26v-4.27c0-1.67-.3-2.93-.89-3.78-.74-.98-1.97-1.6-3.69-1.85-.15-.01-.47-.07-.96-.16,1.06-.21,1.81-.37,2.26-.49,1.68-.54,2.72-1.61,3.11-3.22Z"/>
      <path class="cls-1" d="m78.32,13.79c-.31-.57-.74-.85-1.3-.85-1.09,0-1.63.85-1.63,2.55v2.12h3.26v-2.12c0-.74-.11-1.31-.34-1.7Z"/>
      <path class="cls-1" d="m39.47,13.79c-.31-.57-.74-.85-1.3-.85-1.09,0-1.63.85-1.63,2.55v2.12h3.26v-2.12c0-.74-.11-1.31-.34-1.7Z"/>
      <path class="cls-1" d="m145.52,6.75c-.4-2.86-1.4-4.77-2.99-5.72-1.1-.67-2.71-1.01-4.83-1.03h-3.69c-2.11.01-3.72.36-4.83,1.03-1.59.95-2.6,2.86-3.02,5.72-.16,1.43-.25,3.31-.25,5.63v5.72c0,2.32.08,4.2.25,5.63.42,2.87,1.42,4.79,3.02,5.74,1.1.67,2.71,1.01,4.83,1.03h3.69c2.11-.01,3.72-.36,4.83-1.03,1.59-.95,2.59-2.87,2.99-5.74.18-1.43.27-3.31.27-5.63v-5.72c0-2.32-.09-4.2-.27-5.63Zm-8.07,15.02c0,.73-.13,1.28-.38,1.65-.36.5-.81.76-1.36.76-.47,0-.89-.2-1.25-.6-.34-.39-.51-.99-.51-1.8v-13.11c0-.73.13-1.27.38-1.62.36-.5.82-.76,1.38-.76.46,0,.87.2,1.22.6.34.37.51.96.51,1.78v13.11Z"/>
      <path class="cls-1" d="m185.28,4.4c-.19-1.67-.68-2.84-1.45-3.53-.66-.55-2.32-.84-5-.87h-13.22v30.49h8.18v-11.93h5.7c1.07,0,1.76,0,2.06-.02,1.36-.1,2.3-.57,2.84-1.39.64-.91,1.01-3.21,1.12-6.9v-2.32c0-1.34-.07-2.52-.2-3.53Zm-8.85,6.99c-.27.31-.79.47-1.58.47h-1.36v-5.3h1.16c.91,0,1.5.21,1.78.62.36.49.53,1.2.53,2.14s-.18,1.65-.53,2.07Z"/>
      <path class="cls-1" d="m239.89,25.38v-4.71c.07-2.25-.54-3.83-1.83-4.74-.55-.36-1.43-.71-2.64-1.07,1.18-.13,2.04-.39,2.59-.78.95-.7,1.54-1.82,1.76-3.35.07-.57.11-1.53.11-2.88v-1.97c-.01-1.37-.19-2.53-.54-3.48-.45-1.33-1.41-2.08-2.88-2.26-.73-.09-2.02-.13-3.86-.13h-12.51v30.49h8.18v-11.93h1.03c.73,0,1.3.17,1.72.51.45.39.68,1.12.69,2.21v4.07c-.01,2.13.19,3.84.63,5.14h8.2c-.42-1.33-.63-3.03-.65-5.12Zm-9.15-13.94c-.27.28-.86.42-1.78.42h-1.16v-5.3h1.16c.76,0,1.28.13,1.58.38.49.43.73,1.19.73,2.27s-.18,1.85-.53,2.23Z"/>
    </g>
  </g>
</svg>