<?xml version="1.0" encoding="UTF-8"?>
<svg id="Layer_2" data-name="Layer 2" xmlns="http://www.w3.org/2000/svg" viewBox="0 0 51.96 51.96">
  <defs>
    <style>
      .cls-1 {
        fill: #018aaa;
        stroke-width: 0px;
      }
    </style>
  </defs>
  <g id="Layer_1-2" data-name="Layer 1">
    <path class="cls-1" d="m25.98,0C11.65,0,0,11.65,0,25.98s11.65,25.98,25.98,25.98,25.98-11.65,25.98-25.98S40.3,0,25.98,0Zm0,50.55c-9.32,0-17.43-5.19-21.6-12.84h5.64v-3.45h-4.06c-1.24,0-2.16-.15-2.76-.46-.8-.41-.93-1.31-1.12-2.09-.15-.62-.28-1.26-.38-1.89-.2-1.28-.31-2.57-.31-3.86,0-1.22.09-2.43.27-3.64.09-.6.2-1.19.34-1.79.13-.56.18-1.12.47-1.62.28-.49.71-.92,1.22-1.18.66-.34,1.91-.51,3.73-.51h10.27v6.31h-7.56v3.17h2.94c2.44-.03,4.05.5,4.85,1.61.39.65.61,1.75.66,3.32.02.41.03,1.23.03,2.45v3.73c0,.37-.04.91-.11,1.61-.08.7-.15,1.22-.22,1.56-.2.97-.79,1.76-1.76,2.38-.23.14-.53.25-.87.34h11.02v-13.64h1.23c1.36.02,2.22.72,2.58,2.09.1.36.15,1.11.15,2.25v3.19c0,1.46.07,2.66.2,3.58.14.82.44,1.66.92,2.53h8.97c-.29-.94-.49-1.79-.59-2.55-.1-.83-.15-2.08-.15-3.73v-4.88c0-1.91-.34-3.35-1.02-4.32-.85-1.12-2.26-1.83-4.22-2.12-.17-.02-.54-.08-1.1-.18,1.21-.24,2.07-.43,2.58-.56,1.92-.61,3.11-1.84,3.55-3.68.14-.56.2-1.63.2-3.19v-4.11c.02-1.77.06-2.89.13-3.35.07-.58.27-1.31.61-2.2h-9.3c-.53,1.24-.79,2.77-.79,4.57v3.99c0,1.16-.03,1.92-.08,2.3-.1,1.12-.37,1.9-.82,2.32-.32.29-.89.44-1.69.46h-1.38V1.41c13.27.36,23.92,11.2,23.92,24.55s-11.01,24.59-24.59,24.59Z"/>
  </g>
</svg>