<?xml version="1.0" standalone="no"?>
<!DOCTYPE svg PUBLIC "-//W3C//DTD SVG 20010904//EN"
 "http://www.w3.org/TR/2001/REC-SVG-20010904/DTD/svg10.dtd">
<svg version="1.0" xmlns="http://www.w3.org/2000/svg"
 width="1440.000000pt" height="1440.000000pt" viewBox="0 0 1440.000000 1440.000000"
 preserveAspectRatio="xMidYMid meet">
<metadata>
Created by potrace 1.14, written by Peter Selinger 2001-2017
</metadata>
<g transform="translate(0.000000,1440.000000) scale(0.100000,-0.100000)"
fill="#000000" stroke="none">
<path d="M6967 12294 c-1 -1 -51 -5 -112 -9 -60 -3 -123 -8 -140 -10 -16 -2
-70 -9 -120 -15 -111 -13 -139 -17 -190 -25 -73 -11 -249 -46 -315 -61 -36 -9
-72 -17 -80 -19 -8 -2 -44 -11 -80 -20 -36 -9 -72 -18 -80 -20 -68 -15 -437
-139 -515 -174 -11 -5 -45 -19 -75 -31 -343 -138 -718 -352 -1060 -604 -922
-679 -1597 -1675 -1881 -2773 -38 -151 -86 -375 -95 -443 -2 -19 -6 -46 -9
-60 -12 -66 -20 -120 -30 -225 -4 -38 -9 -79 -11 -89 -22 -118 -22 -751 1
-920 2 -17 6 -56 10 -86 14 -125 24 -207 36 -275 64 -376 159 -715 299 -1065
64 -162 187 -420 257 -538 24 -41 43 -76 43 -78 0 -33 388 -599 469 -684 9 -9
27 -30 40 -46 143 -172 415 -448 590 -597 373 -318 809 -594 1231 -779 19 -9
51 -23 70 -31 199 -87 505 -190 745 -250 99 -25 194 -48 210 -51 268 -47 303
-53 463 -71 161 -19 346 -28 557 -29 173 0 409 10 467 19 13 2 54 6 91 10 37
3 76 8 85 10 9 1 40 6 67 9 62 8 162 24 195 31 14 3 41 8 60 11 80 13 299 66
432 105 392 113 797 287 1158 498 157 92 450 292 556 380 18 14 51 42 75 61
439 357 845 826 1145 1325 151 252 333 636 414 875 12 36 26 74 31 85 14 34
88 281 114 384 22 90 27 110 40 179 3 15 8 34 10 42 2 8 7 31 10 50 3 19 8 49
12 65 3 17 7 39 9 50 3 28 24 165 30 195 2 14 6 54 9 90 3 36 8 76 10 90 25
139 25 729 1 940 -3 19 -7 66 -11 103 -3 37 -8 76 -10 85 -1 9 -6 40 -9 67 -4
28 -16 101 -27 163 -120 670 -365 1291 -734 1858 -66 101 -221 322 -234 334
-3 3 -44 52 -91 110 -46 58 -98 120 -115 139 -102 116 -323 338 -424 427 -25
21 -58 52 -75 67 -43 39 -277 225 -334 265 -190 133 -370 248 -512 327 -61 33
-343 173 -420 208 -289 129 -715 265 -1016 322 -44 8 -90 17 -104 20 -14 3
-41 8 -60 11 -19 2 -57 9 -85 14 -27 5 -75 12 -105 15 -30 3 -71 8 -90 10
-188 21 -294 27 -553 29 -131 1 -239 1 -240 0z m648 -289 c22 -3 60 -7 85 -10
25 -3 70 -7 100 -10 30 -3 62 -7 70 -9 8 -3 35 -7 60 -10 52 -7 71 -10 205
-37 55 -11 111 -23 125 -25 14 -3 93 -23 175 -45 646 -175 1234 -474 1749
-890 179 -144 198 -161 382 -344 270 -270 460 -505 666 -830 86 -136 200 -335
191 -335 -3 0 0 -7 7 -15 11 -14 110 -211 110 -220 0 -2 13 -32 29 -67 98
-215 242 -646 277 -833 2 -11 10 -51 18 -90 14 -64 42 -223 51 -285 10 -67 14
-102 20 -165 4 -38 8 -76 10 -85 23 -118 23 -715 0 -885 -2 -16 -7 -57 -10
-90 -6 -60 -42 -302 -50 -340 -3 -11 -7 -31 -9 -45 -52 -293 -216 -814 -314
-995 -9 -16 -15 -32 -15 -35 5 -14 -193 -398 -247 -480 -5 -8 -17 -28 -26 -45
-30 -55 -196 -299 -271 -398 -206 -272 -483 -566 -713 -756 -36 -30 -67 -57
-70 -61 -8 -10 -276 -211 -345 -257 -502 -340 -1099 -597 -1660 -714 -33 -7
-62 -13 -65 -14 -3 -1 -25 -5 -50 -9 -25 -5 -54 -10 -65 -12 -31 -7 -204 -33
-260 -39 -27 -3 -63 -8 -80 -10 -119 -15 -248 -20 -500 -20 -293 0 -387 5
-575 30 -19 3 -55 7 -80 10 -534 68 -1134 266 -1630 537 -62 34 -240 139 -255
150 -5 4 -62 42 -125 84 -432 289 -832 669 -1154 1098 -62 82 -246 352 -246
361 0 2 -15 28 -34 57 -18 29 -45 76 -59 104 l-26 51 532 1 c293 0 538 1 545
1 9 1 12 75 12 336 l0 335 -472 1 c-260 0 -480 2 -488 4 -8 1 -42 5 -75 8 -33
4 -71 9 -85 12 -14 3 -38 8 -55 11 -56 10 -160 57 -202 91 -48 38 -82 91 -112
173 -18 51 -83 322 -96 400 -3 19 -8 46 -10 60 -3 14 -8 36 -10 50 -3 14 -8
43 -10 65 -3 22 -7 47 -10 55 -2 8 -7 42 -10 75 -3 33 -8 74 -10 90 -6 43 -16
159 -21 235 -4 75 -4 485 0 545 2 22 6 84 10 138 4 54 9 106 11 116 2 9 6 44
10 76 9 80 53 334 70 410 8 33 17 76 20 95 25 150 65 252 130 335 85 108 183
170 321 204 93 23 140 30 324 47 49 4 2083 9 2230 5 l25 -1 0 -607 0 -608
-733 -3 c-575 -2 -732 -5 -733 -15 -1 -15 -1 -565 0 -589 1 -15 32 -17 379
-16 363 0 430 -2 572 -22 270 -38 521 -183 586 -339 38 -90 55 -154 79 -299
21 -128 28 -356 27 -987 0 -531 -3 -671 -17 -785 -2 -19 -7 -62 -11 -95 -3
-33 -8 -67 -9 -76 -2 -9 -6 -38 -10 -65 -3 -27 -12 -77 -21 -109 -8 -33 -16
-67 -18 -76 -9 -36 -68 -138 -110 -191 -81 -101 -257 -228 -317 -228 -27 0
-34 -20 -7 -21 30 -1 2037 -1 2064 0 l21 1 -1 1320 c-1 1313 -1 1320 19 1321
56 2 284 -1 313 -5 154 -21 290 -124 358 -272 71 -152 74 -189 79 -964 3 -520
7 -685 19 -765 3 -16 8 -57 12 -89 3 -33 7 -64 9 -70 1 -6 5 -29 9 -51 21
-107 138 -403 168 -421 8 -5 1646 -10 1727 -5 8 1 11 8 8 19 -7 24 -48 174
-52 192 -21 90 -44 205 -49 245 -13 100 -15 122 -21 210 -12 176 -14 288 -16
975 -1 708 -5 790 -40 964 -55 270 -150 434 -334 570 -178 132 -406 210 -748
256 -48 7 -86 14 -83 17 4 4 33 11 176 39 98 19 301 69 345 84 195 67 369 190
483 341 84 112 162 308 177 446 4 32 9 69 11 83 6 26 11 375 19 1240 2 283 6
533 9 555 3 22 8 67 11 99 3 33 8 62 10 65 2 4 6 25 10 48 3 23 26 103 50 178
25 74 45 136 45 138 0 1 -406 2 -901 2 l-902 0 -27 -71 c-27 -70 -64 -201 -74
-259 -3 -16 -8 -41 -11 -55 -9 -45 -15 -84 -21 -140 -3 -30 -8 -66 -11 -80 -3
-14 -7 -306 -9 -650 -3 -583 -8 -837 -18 -885 -2 -11 -7 -42 -10 -69 -23 -168
-95 -320 -175 -370 -50 -32 -130 -55 -211 -62 -119 -10 -350 -10 -351 1 0 13
0 4012 0 4048 l1 28 123 -6 c67 -3 140 -8 162 -10z"/>
</g>
</svg>
